PathFileType	4	(X/Y/Z)	E:\Qualisys_Data\Carbon_Farble_Plate\Data\Amateur_Runner\S14\T1\S14T1V13_c3d.trc
DataRate	CameraRate	NumFrames	NumMarkers	Units	OrigDataRate	OrigDataStartFrame	OrigNumFrames
200.000000	200.000000	4	39	mm	200.000000	296	339
Frame#	Time	LSHO			RSHO			LICST			RICST			LASIS			LHEEL			RASIS			LTROC			RTROC			SACR			LTH1			LSK4			LTH2			LTH3			RHM5			LSK2			LTH4			RTH1			LTOE			RTH2			RTH3			RTH4			LLEP			RLEP			LSK1			LSK3			RSK1			LHM5			RSK2			LFT1			RSK3			RSK4			LLME			RLME			RTOE			RHEEL			RFT1			RFT2			LFT2			
		X1	Y1	Z1	X2	Y2	Z2	X3	Y3	Z3	X4	Y4	Z4	X5	Y5	Z5	X6	Y6	Z6	X7	Y7	Z7	X8	Y8	Z8	X9	Y9	Z9	X10	Y10	Z10	X11	Y11	Z11	X12	Y12	Z12	X13	Y13	Z13	X14	Y14	Z14	X15	Y15	Z15	X16	Y16	Z16	X17	Y17	Z17	X18	Y18	Z18	X19	Y19	Z19	X20	Y20	Z20	X21	Y21	Z21	X22	Y22	Z22	X23	Y23	Z23	X24	Y24	Z24	X25	Y25	Z25	X26	Y26	Z26	X27	Y27	Z27	X28	Y28	Z28	X29	Y29	Z29	X30	Y30	Z30	X31	Y31	Z31	X32	Y32	Z32	X33	Y33	Z33	X34	Y34	Z34	X35	Y35	Z35	X36	Y36	Z36	X37	Y37	Z37	X38	Y38	Z38	X39	Y39	Z39	

297	1.48	2034.366088867188	1447.105834960938	-579.169921875	2020.286499023438	1456.805419921875	-280.9777526855469	1975.076538085938	997.5197143554688	-544.7039184570312	2012.36328125	1007.678649902344	-271.484130859375	2016.978149414062	947.0751953125	-522.052734375	1526.137084960938	209.2527313232422	-405.613037109375	2040.814819335938	964.6834106445312	-292.3597412109375	1854.409545898438	890.0850830078125	-540.919921875	1910.572875976562	912.0034790039062	-225.960693359375	1858.129638671875	1010.442565917969	-400.185791015625	1878.957885742188	659.7775268554688	-554.4421997070312	1648.349853515625	366.3290405273438	-490.7386169433594	1808.945068359375	679.3348388671875	-522.9546508789062	1866.03955078125	563.2673950195312	-530.2789306640625	2108.22509765625	91.16417694091795	-239.874267578125	1705.030029296875	445.6961364746094	-512.0401611328125	1792.26513671875	583.5989990234375	-505.351806640625	2133.8662109375	726.5152587890625	-247.1827392578125	1699.51318359375	40.94331359863281	-452.84521484375	2064.072265625	694.7293090820312	-233.0242309570312	2175.545166015625	639.2741088867188	-275.9496765136719	2104.025390625	602.3924560546875	-252.6222229003906	1815.549438476562	504.0367736816406	-517.79736328125	2143.374267578125	547.4859619140625	-263.7114868164062	1771.561767578125	397.7885131835938	-517.010498046875	1711.500854492188	315.9244384765625	-500.3442687988281	2138.036865234375	425.3663024902344	-256.0086669921875	1629.93212890625	59.09862518310547	-504.1733093261719	2056.006591796875	450.3143310546875	-248.6544036865234	1526.218139648438	184.2881011962891	-376.0987243652344	2100.260986328125	328.7480163574219	-264.0254821777344	2026.873901367188	358.6748962402344	-258.3059692382812	1578.449829101562	194.3032379150391	-469.295166015625	1999.78076171875	183.0418548583984	-271.0071411132812	2179.15625	75.3902816772461	-302.3863220214844	1937.718872070312	167.7150268554688	-324.8465576171875	1943.008911132812	134.2197113037109	-351.2146301269531	1934.57080078125	148.0541229248047	-295.3404235839844	1506.986328125	186.7989654541016	-428.0947875976562
298	1.485	2050.5107421875	1450.581787109375	-578.0057373046875	2033.927734375	1460.151977539062	-280.4567565917969	1991.762451171875	1000.507873535156	-544.4059448242188	2029.903198242188	1010.975280761719	-270.9362487792969	2033.483764648438	949.9406127929688	-522.141357421875	1536.8603515625	217.4296722412109	-406.7782897949219	2056.84423828125	968.0825805664062	-292.0345764160156	1870.34423828125	893.9326171875	-541.0842895507812	1926.348999023438	915.9451293945312	-225.8216552734375	1874.631591796875	1013.224426269531	-400.3589782714844	1891.414184570312	663.9237060546875	-555.2318115234375	1657.85888671875	371.6498107910156	-490.963134765625	1822.058959960938	684.0394287109375	-522.9815063476562	1877.133544921875	567.4097290039062	-531.443359375	2142.609619140625	90.46929931640624	-241.0836181640625	1714.506225585938	451.3087463378906	-511.7781066894531	1803.868408203125	588.1851806640625	-505.5360412597656	2148.48681640625	728.7525024414062	-247.2003631591797	1701.571655273438	39.36884689331055	-452.6052856445312	2078.38525390625	697.1485595703125	-233.8757476806641	2189.985107421875	641.2944946289062	-276.2225952148438	2117.9375	604.896484375	-253.3843536376953	1825.676391601562	508.4684143066406	-518.9678955078125	2157.585693359375	549.411865234375	-264.1725158691406	1781.032104492188	402.9357299804688	-518.0169067382812	1720.563720703125	321.503173828125	-501.7274780273438	2156.5068359375	426.2141723632812	-256.1269836425781	1633.724853515625	61.51295471191406	-504.7554931640625	2073.319091796875	447.7636413574219	-248.5654602050781	1535.926391601562	192.6695404052734	-377.4888610839844	2122.902099609375	328.1644897460938	-264.0604248046875	2048.37890625	354.5293579101562	-258.2452087402344	1587.361572265625	199.8002166748047	-470.6940612792969	2029.63427734375	177.5248565673828	-271.6173706054688	2214.056396484375	78.59846496582031	-303.644775390625	1968.465942382812	159.4690093994141	-325.1758117675781	1975.117797851562	126.1713790893555	-352.0606689453125	1965.948364257812	138.9844055175781	-296.528564453125	1517.032104492188	195.8860778808594	-429.2738037109375
299	1.49	2067.072509765625	1453.844360351562	-576.6405639648438	2048.127197265625	1462.887084960938	-280.0583801269531	2008.570434570312	1003.374206542969	-544.2327270507812	2044.904418945312	1014.081970214844	-270.3079223632812	2049.762939453125	952.2134399414062	-521.6599731445312	1547.969482421875	225.8224334716797	-408.43603515625	2073.216064453125	971.42626953125	-291.58251953125	1886.275024414062	897.2755737304688	-541.7059326171875	1942.300415039062	919.1115112304688	-226.0113067626953	1890.643676757812	1016.628723144531	-400.7132873535156	1904.122802734375	667.687255859375	-555.7022094726562	1667.572875976562	377.1892395019531	-491.6195373535156	1835.304931640625	688.405517578125	-522.9987182617188	1888.73193359375	571.2569580078125	-532.7149658203125	2176.57080078125	90.5014419555664	-242.5936737060547	1725.121459960938	456.3423461914062	-511.543701171875	1816.025390625	592.8983154296875	-505.73046875	2162.877197265625	730.381103515625	-247.6911315917969	1704.410278320312	38.03726959228516	-453.2090759277344	2092.715087890625	699.5390625	-234.3414001464844	2203.80517578125	642.6445922851562	-276.5386352539062	2131.75146484375	606.60400390625	-253.8665771484375	1836.513916015625	513.53515625	-519.6795654296875	2171.7509765625	550.8536376953125	-264.3531799316406	1790.886596679688	408.1063537597656	-519.34130859375	1729.98876953125	326.6979370117188	-503.5064086914062	2174.938232421875	427.3381958007812	-256.5353698730469	1637.885864257812	64.23754119873047	-504.9299011230469	2090.856201171875	445.1667785644531	-248.4833374023438	1546.338134765625	201.8360748291016	-378.4008483886719	2145.74267578125	328.0166931152344	-264.7828979492188	2070.083251953125	350.6480102539062	-258.6478271484375	1596.112060546875	205.5269775390625	-472.5723571777344	2059.485107421875	171.9994812011719	-272.4637145996094	2248.58349609375	83.03726196289062	-305.0768127441406	1999.10107421875	151.2786102294922	-326.0028686523438	2007.284057617188	118.8545837402344	-353.1890869140625	1997.477416992188	130.6659393310547	-297.6158142089844	1526.951049804688	204.8247680664062	-430.07080078125
300	1.495	2083.337158203125	1456.782470703125	-575.4375610351562	2062.582275390625	1465.21923828125	-279.6842346191406	2025.516723632812	1006.068359375	-544.0252075195312	2060.050537109375	1016.454284667969	-270.6082458496094	2066.5	954.9970092773438	-521.5529174804688	1559.718505859375	234.1921081542969	-409.4051513671875	2089.177734375	974.2674560546876	-291.4650573730469	1900.892333984375	900.5693359375	-542.8816528320312	1958.35986328125	922.2784423828124	-226.2992553710938	1907.769287109375	1019.533325195312	-401.5641784667969	1917.069458007812	671.2481689453125	-556.0150756835938	1678.050170898438	382.5078125	-491.7936096191406	1848.525268554688	692.82177734375	-522.8486328125	1900.527709960938	574.9688110351562	-533.5928344726562	2210.354736328125	91.00276947021484	-244.0453796386719	1735.440795898438	461.8121032714844	-511.3645935058594	1828.2958984375	597.3793334960938	-506.1493225097656	2177.02880859375	731.299072265625	-247.8187561035156	1707.30859375	36.80908584594727	-453.6783142089844	2106.93701171875	701.5464477539062	-234.6418914794922	2217.750244140625	643.8794555664062	-276.5320739746094	2145.335693359375	608.5364379882812	-254.0429229736328	1847.621948242188	517.5848999023438	-520.5711669921875	2185.36865234375	551.5463256835938	-264.518798828125	1801.035766601562	412.8716735839844	-519.9564819335938	1740.0234375	331.6108703613281	-504.9577331542969	2192.7724609375	427.7345581054688	-256.2020263671875	1642.109741210938	67.0802993774414	-505.1474609375	2108.059326171875	442.0701904296875	-248.4419555664062	1557.55224609375	210.6086883544922	-379.2292785644531	2168.043212890625	327.005859375	-264.4738159179688	2091.590576171875	347.0171203613281	-258.6025085449219	1606.175537109375	211.3585357666016	-473.8342590332031	2089.315673828125	167.0887756347656	-273.553466796875	2282.569091796875	88.08619689941406	-307.1079406738281	2029.603271484375	143.4974975585938	-326.9041442871094	2039.602416992188	111.8775405883789	-354.1836853027344	2029.04931640625	122.4718933105469	-298.5738220214844	1537.778076171875	214.0234375	-431.1584777832031
